<svg width="17" height="15" viewBox="0 0 17 15" fill="none" xmlns="http://www.w3.org/2000/svg">
<path d="M8.5 5.69635V8.58458M8.5 11.4728H8.50731M7.48814 2.00789L1.47781 12.2659C1.14444 12.8348 0.97775 13.1193 1.00239 13.3528C1.02387 13.5565 1.13186 13.7415 1.29946 13.8619C1.49162 14 1.8243 14 2.48967 14H14.5103C15.1757 14 15.5084 14 15.7005 13.8619C15.8681 13.7415 15.9761 13.5565 15.9976 13.3528C16.0222 13.1193 15.8556 12.8348 15.5222 12.2659L9.51186 2.00789C9.17968 1.44096 9.01359 1.15749 8.7969 1.06228C8.60789 0.979239 8.39211 0.979239 8.2031 1.06228C7.98641 1.15749 7.82032 1.44096 7.48814 2.00789Z" stroke="#5F6EF1" stroke-width="1.5" stroke-linecap="round" stroke-linejoin="round"/>
</svg>
