<svg width="54" height="55" viewBox="0 0 54 55" fill="none" xmlns="http://www.w3.org/2000/svg">
<path d="M13.3799 23.135V32.0539M40.1366 23.135V32.0539M4.46094 19.1215L4.46094 36.0674C4.46094 38.5649 4.46094 39.8137 4.94699 40.7676C5.37453 41.6067 6.05674 42.2889 6.89584 42.7165C7.84978 43.2025 9.09854 43.2025 11.5961 43.2025L41.9204 43.2025C44.4179 43.2025 45.6667 43.2025 46.6206 42.7165C47.4597 42.2889 48.1419 41.6067 48.5695 40.7676C49.0555 39.8137 49.0555 38.5649 49.0555 36.0674V19.1215C49.0555 16.6239 49.0555 15.3752 48.5695 14.4212C48.1419 13.5821 47.4597 12.8999 46.6206 12.4724C45.6667 11.9863 44.4179 11.9863 41.9204 11.9863L11.5961 11.9863C9.09854 11.9863 7.84978 11.9863 6.89585 12.4724C6.05674 12.8999 5.37453 13.5821 4.94699 14.4212C4.46094 15.3752 4.46094 16.6239 4.46094 19.1215ZM32.3326 27.5944C32.3326 30.673 29.8369 33.1688 26.7582 33.1688C23.6796 33.1688 21.1839 30.673 21.1839 27.5944C21.1839 24.5158 23.6796 22.0201 26.7582 22.0201C29.8369 22.0201 32.3326 24.5158 32.3326 27.5944Z" stroke="black" stroke-width="2.5" stroke-linecap="round" stroke-linejoin="round"/>
</svg>
