<svg width="25" height="25" viewBox="0 0 25 25" fill="none" xmlns="http://www.w3.org/2000/svg">
<circle cx="12.5" cy="12.5" r="12.5" fill="#E3E4E8"/>
<g clip-path="url(#clip0_329_9447)">
<path d="M7.49219 11.0625C7.49219 10.3624 7.49219 10.0124 7.60052 9.74501C7.69582 9.50981 7.84787 9.31858 8.0349 9.19874C8.24752 9.0625 8.52585 9.0625 9.08252 9.0625H13.108C13.6647 9.0625 13.943 9.0625 14.1557 9.19874C14.3427 9.31858 14.4947 9.50981 14.59 9.74501C14.6984 10.0124 14.6984 10.3624 14.6984 11.0625V16.125C14.6984 16.8251 14.6984 17.1751 14.59 17.4425C14.4947 17.6777 14.3427 17.8689 14.1557 17.9888C13.943 18.125 13.6647 18.125 13.108 18.125H9.08252C8.52585 18.125 8.24752 18.125 8.0349 17.9888C7.84787 17.8689 7.69582 17.6777 7.60052 17.4425C7.49219 17.1751 7.49219 16.8251 7.49219 16.125V11.0625Z" fill="#AFB0B9"/>
<path d="M9.72656 6.875H13.2551C14.3684 6.875 14.9251 6.875 15.3504 7.14748C15.7244 7.38717 16.0285 7.76962 16.2191 8.24002C16.4358 8.7748 16.4358 9.47487 16.4358 10.875V15.3125" stroke="#AFB0B9" stroke-width="1.5" stroke-linecap="square" stroke-linejoin="round"/>
</g>
<defs>
<clipPath id="clip0_329_9447">
<rect width="11.9275" height="15" fill="white" transform="translate(6 5)"/>
</clipPath>
</defs>
</svg>
