<svg width="25" height="23" viewBox="0 0 25 23" fill="none" xmlns="http://www.w3.org/2000/svg">
<path d="M12.5 0C5.59628 0 0 4.43046 0 9.8959C0 13.4535 2.37139 16.5708 5.92978 18.3152C5.66816 19.2931 4.98303 21.8566 4.84575 22.4052C4.67673 23.0861 5.09506 23.077 5.36898 22.8935C5.58398 22.7502 8.79462 20.5648 10.1798 19.6212C10.9316 19.7328 11.7067 19.7918 12.5 19.7918C19.4037 19.7918 25 15.3607 25 9.8959C25 4.43111 19.4037 0 12.5 0Z" fill="#391B1B"/>
<path d="M7.35684 7.24707H3.75677C3.41812 7.24707 3.14453 7.5213 3.14453 7.85931C3.14453 8.19731 3.41876 8.47154 3.75677 8.47154H4.92703V12.784C4.92703 12.9409 4.9908 13.0952 5.10305 13.2068C5.21274 13.3178 5.36643 13.3815 5.52396 13.3815H5.6547C5.81158 13.3815 5.96464 13.3178 6.07497 13.2068C6.18721 13.0952 6.25099 12.9415 6.25099 12.784V8.47154H7.3562C7.69484 8.47154 7.96907 8.19731 7.96907 7.85931C7.96907 7.5213 7.69484 7.24707 7.3562 7.24707H7.35684Z" fill="#FAE300"/>
<path d="M16.0097 12.2294H14.3356V7.82518C14.3356 7.45783 14.0384 7.16064 13.6717 7.16064C13.305 7.16064 13.0078 7.45783 13.0078 7.82518V12.5726C13.0078 12.6095 13.0123 12.644 13.018 12.6791C13.0116 12.7135 13.0078 12.7492 13.0078 12.7849C13.0078 13.0923 13.2559 13.341 13.5633 13.341H16.0097C16.3177 13.341 16.5652 13.0923 16.5652 12.7849C16.5652 12.4775 16.3171 12.2294 16.0097 12.2294Z" fill="#FAE300"/>
<path d="M21.3596 12.4316L19.4942 9.98139L21.1798 8.29519C21.4081 8.06752 21.4081 7.69699 21.1798 7.46868C20.9515 7.24036 20.5816 7.24036 20.3526 7.46868L18.2659 9.55538V7.82518C18.2659 7.45783 17.9687 7.16064 17.602 7.16064C17.2353 7.16064 16.9375 7.45783 16.9375 7.82518V12.7186C16.9375 13.0859 17.2347 13.3831 17.602 13.3831C17.9694 13.3831 18.2659 13.0866 18.2659 12.7186V11.2091L18.6454 10.8302L20.41 13.1459C20.6064 13.408 20.9795 13.4622 21.2416 13.2639C21.5038 13.0668 21.5567 12.6944 21.3596 12.4316Z" fill="#FAE300"/>
<path d="M12.509 12.5906L10.7151 7.68247C10.7151 7.68247 10.7106 7.67864 10.7093 7.67673C10.5945 7.37763 10.2636 7.16016 9.86879 7.16016C9.43065 7.16016 9.06842 7.42801 8.99635 7.77813C8.98423 7.80428 8.97212 7.83043 8.96191 7.85849L7.19791 12.5906C7.08885 12.9011 7.25212 13.2404 7.56142 13.3495C7.87137 13.4585 8.21129 13.2953 8.32034 12.9853L8.62582 12.1142H11.0811L11.386 12.9853C11.495 13.2953 11.835 13.4585 12.1449 13.3495C12.4548 13.2404 12.6181 12.9011 12.509 12.5906ZM9.01548 11.0013L9.84072 8.64674C9.85029 8.64674 9.85794 8.64929 9.86751 8.64929L10.6921 11.0013H9.01612H9.01548Z" fill="#FAE300"/>
</svg>
