<svg width="74" height="74" viewBox="0 0 74 74" fill="none" xmlns="http://www.w3.org/2000/svg">
<g clip-path="url(#clip0_349_8813)">
<path d="M7.82849 54.7121C7.53135 51.4449 6.4834 48.4827 4.42728 45.8811C3.30239 44.457 2.22526 42.9905 1.30199 41.4179C-0.427792 38.4716 -0.435751 35.5438 1.28873 32.5949C2.02628 31.3352 2.8275 30.1126 3.76933 29.0121C6.41176 25.9252 7.62155 22.3 8.02482 18.33C8.15216 17.0836 8.444 15.8611 8.7544 14.6438C9.57154 11.4482 11.6197 9.53616 14.7715 8.71671C16.3421 8.30831 17.9366 8.0272 19.5443 7.86278C23.3329 7.47294 26.5457 5.84465 29.4429 3.4632C30.4378 2.64375 31.5229 1.94098 32.6345 1.28595C35.4706 -0.382129 38.3147 -0.43782 41.1959 1.17987C42.7877 2.07358 44.2681 3.13701 45.6769 4.28C48.3962 6.48642 51.5348 7.51803 54.9493 7.92112C56.5225 8.10676 58.0798 8.39317 59.608 8.83074C62.5662 9.67671 64.4047 11.5835 65.2245 14.5457C65.771 16.5267 66.039 18.5581 66.3441 20.5762C66.7527 23.2865 67.7608 25.7051 69.4137 27.8876C70.6288 29.4921 71.8704 31.0832 72.852 32.8548C74.4571 35.7454 74.3536 38.583 72.7008 41.4179C71.682 43.1655 70.4457 44.7594 69.228 46.3638C67.3443 48.8434 66.4714 51.665 66.1716 54.7121C66.4263 55.3778 66.1557 56.0142 66.0655 56.6586C65.9116 57.738 65.6357 58.7882 65.3412 59.841C64.4445 63.0498 62.2239 64.7869 59.1145 65.5639C57.4139 65.9882 55.6815 66.2534 53.9464 66.4841C50.9591 66.8793 48.2821 67.9772 45.9209 69.8627C45.4938 70.2021 45.1011 70.6556 44.4724 70.6477C42.984 71.674 41.5381 72.7666 39.8349 73.4428C37.7947 74.2517 35.7943 74.1615 33.7992 73.2917C32.2471 72.6154 30.91 71.5971 29.5304 70.645C29.1059 70.6318 28.7716 70.3957 28.4772 70.1412C25.4102 67.4945 21.7013 66.5849 17.8093 66.1155C15.8725 65.8821 13.9703 65.487 12.2352 64.5005C11.0546 63.8295 10.0783 62.9676 9.46011 61.761C8.4042 59.7031 7.99563 57.4648 7.73563 55.1921C7.71706 55.0303 7.7489 54.8633 7.8338 54.7148L7.82849 54.7121Z" fill="#FFDB5C"/>
<path d="M62.8986 37.0235C62.8179 50.9756 51.9566 62.8097 37.0422 62.8991C23.0913 62.9828 11.0098 51.9221 11.1021 36.5733C11.1857 22.8318 22.774 10.7495 37.7634 11.1074C51.2527 11.4306 62.9246 22.7106 62.9015 37.0206L62.8986 37.0235Z" fill="#FFCE1F"/>
<path d="M26.8905 51.7943C26.5417 51.0036 26.9461 50.3066 27.0511 49.6213C27.4463 47.006 27.9186 44.3965 28.4682 41.8076C28.6009 41.1838 28.4188 40.8587 28.0112 40.4868C25.6309 38.3137 23.2598 36.1318 20.8888 33.95C20.7313 33.8036 20.5955 33.6337 20.3516 33.373C23.8186 32.8957 27.156 32.4124 30.5027 31.9878C31.4258 31.8706 32.0186 31.5397 32.4261 30.7021C33.6518 28.1893 34.9577 25.7087 36.2421 23.2223C36.4242 22.8709 36.5323 22.4696 36.9028 22.2002C37.3535 22.3759 37.4153 22.8152 37.5912 23.152C38.9342 25.7351 40.2772 28.3182 41.5616 30.9276C41.8857 31.5866 42.3951 31.8589 43.0558 31.9497C46.4889 32.4212 49.9251 32.8722 53.6516 33.3701C52.3981 34.5357 51.3577 35.6486 50.1598 36.5799C48.5451 37.8363 47.1959 39.3329 45.6739 40.6683C45.325 40.9729 45.2941 41.2746 45.3837 41.7344C45.9764 44.7597 46.5075 47.7967 47.057 50.8308C47.1033 51.0827 47.1898 51.3873 46.9675 51.5571C46.7205 51.7446 46.4581 51.5103 46.2327 51.399C43.4417 50.0166 40.6477 48.6372 37.8691 47.2315C37.2887 46.9386 36.8472 46.842 36.1834 47.1876C33.1239 48.769 30.0118 50.2626 26.8936 51.8002L26.8905 51.7943Z" fill="white"/>
</g>
<defs>
<clipPath id="clip0_349_8813">
<rect width="74" height="74" fill="white"/>
</clipPath>
</defs>
</svg>
