<svg width="24" height="24" viewBox="0 0 24 24" fill="none" xmlns="http://www.w3.org/2000/svg">
<g clip-path="url(#clip0_329_9437)">
<path d="M9.48234 18.996C7.76696 18.996 6.05158 18.9968 4.33619 18.996C3.67123 18.996 3.14559 18.6507 3.05927 18.074C2.86953 16.801 3.09773 15.6659 4.29688 14.8753C5.10799 14.3408 5.99773 13.9996 6.94559 13.7996C8.88491 13.3907 10.8165 13.4279 12.7259 13.9756C13.5319 14.2069 14.2892 14.5382 14.937 15.0694C15.437 15.4792 15.8413 15.9649 15.9217 16.6093C15.9806 17.081 15.9866 17.5693 15.9336 18.0418C15.8704 18.616 15.337 18.9944 14.6875 18.9968C13.5464 19.001 12.4046 18.9985 11.2635 18.9985C10.6704 18.9985 10.0764 18.9985 9.4832 18.9985L9.48234 18.996ZM4.29004 17.7725H14.7106C14.7106 17.5412 14.6986 17.3206 14.7131 17.1025C14.7388 16.706 14.5738 16.3937 14.2875 16.1277C13.8208 15.6956 13.2601 15.4172 12.6558 15.2231C10.7678 14.6159 8.85499 14.5894 6.93192 15.0454C6.16696 15.2272 5.44559 15.5155 4.83277 16.012C4.5738 16.2219 4.33363 16.4614 4.29688 16.7985C4.26269 17.1157 4.28918 17.4387 4.28918 17.7725H4.29004Z" fill="#999999"/>
<path d="M13.044 9.4359C13.0406 11.3228 11.4449 12.8643 9.49445 12.866C7.53804 12.8677 5.9312 11.3096 5.94146 9.4202C5.95 7.53167 7.55171 5.99341 9.50043 6.00002C11.4543 6.00663 13.0474 7.55067 13.044 9.4359ZM9.49957 7.21113C8.24658 7.20535 7.20556 8.20083 7.19359 9.41607C7.18077 10.6321 8.22265 11.6491 9.48504 11.6549C10.7372 11.6607 11.7774 10.666 11.791 9.44912C11.8047 8.23388 10.7637 7.21691 9.49957 7.21113Z" fill="#999999"/>
<path d="M19.6835 17.7847C19.8476 16.9404 19.6561 16.2647 18.8775 15.7905C18.1425 15.3427 17.3425 15.0816 16.4997 14.9197C16.3595 14.8924 16.2168 14.8734 16.0766 14.8462C15.7168 14.7776 15.504 14.486 15.5595 14.1415C15.6117 13.8234 15.9322 13.6062 16.2818 13.6574C17.4655 13.8325 18.5972 14.1531 19.5989 14.8115C20.2048 15.2105 20.7014 15.7062 20.8929 16.415C21.0399 16.9586 21.0125 17.5212 20.9365 18.0681C20.8613 18.6067 20.3741 18.9785 19.7843 18.9892C18.8655 19.0066 17.945 19 17.0262 18.9917C16.6433 18.9884 16.3741 18.7125 16.3835 18.3688C16.3929 18.0317 16.663 17.7872 17.0416 17.7856C17.857 17.7823 18.6715 17.7847 19.4869 17.7847C19.557 17.7847 19.6271 17.7847 19.6826 17.7847H19.6835Z" fill="#999999"/>
<path d="M18.0579 9.47369C18.0605 11.2912 16.4929 12.836 14.5716 12.865C14.1878 12.8707 13.8972 12.6279 13.881 12.2867C13.8639 11.9339 14.1297 11.6753 14.5305 11.6547C15.7152 11.5944 16.6553 10.7922 16.7793 9.73723C16.9374 8.39311 15.9793 7.29601 14.5775 7.21092C14.481 7.20513 14.3801 7.20018 14.2904 7.16878C13.9989 7.068 13.8305 6.77224 13.8912 6.4897C13.957 6.18651 14.2186 5.98989 14.5647 6.00146C15.7015 6.03946 16.6288 6.4864 17.328 7.35466C17.8169 7.96187 18.0459 8.66078 18.0587 9.47286L18.0579 9.47369Z" fill="#999999"/>
</g>
<defs>
<clipPath id="clip0_329_9437">
<rect width="18" height="13" fill="white" transform="translate(3 6)"/>
</clipPath>
</defs>
</svg>
