<svg width="24" height="24" viewBox="0 0 24 24" fill="none" xmlns="http://www.w3.org/2000/svg">
<g clip-path="url(#clip0_329_9453)">
<path d="M3 6.8603C3.08796 6.50087 3.19157 6.1507 3.41892 5.8522C3.83187 5.30843 4.37005 5.00531 5.03719 5.00454C9.67658 4.99837 14.316 4.99914 18.9554 5.00299C20.0757 5.00377 20.994 5.95402 20.9963 7.11561C21.0022 10.3713 21.0022 13.627 20.9963 16.8834C20.994 18.045 20.0772 18.9953 18.9561 18.9968C14.3167 19.0015 9.67732 19.0015 5.03793 18.9968C4.05996 18.9961 3.22884 18.2618 3.03652 17.2583C3.02907 17.2182 3.01267 17.1796 3.00075 17.1395C3.00075 13.7134 3.00075 10.2865 3.00075 6.8603H3ZM11.9806 17.8322C14.2653 17.8322 16.5492 17.8322 18.8339 17.8322C19.4898 17.8322 19.873 17.4372 19.873 16.7608C19.873 13.59 19.873 10.4199 19.873 7.24904C19.873 6.55949 19.4935 6.16767 18.8264 6.16767C14.275 6.16767 9.72354 6.16767 5.17211 6.16767C4.50348 6.16767 4.12407 6.55795 4.12407 7.2475C4.12407 10.4122 4.12407 13.5768 4.12407 16.7415C4.12407 17.4442 4.49975 17.8322 5.17881 17.8322C7.44559 17.8322 9.71236 17.8322 11.9791 17.8322H11.9806Z" fill="#999999"/>
<path d="M12.3818 12.7961C12.9021 12.7961 13.4261 12.7599 13.9427 12.8038C14.9162 12.8871 15.7026 13.7703 15.7525 14.783C15.7615 14.9651 15.7615 15.1471 15.754 15.3291C15.7406 15.6438 15.4879 15.8898 15.192 15.8891C14.8961 15.8875 14.6471 15.6384 14.6337 15.3245C14.6285 15.1972 14.6337 15.0699 14.6315 14.9419C14.6255 14.3765 14.2453 13.9531 13.699 13.9446C12.8209 13.9315 11.9428 13.9315 11.0647 13.9446C10.5183 13.9531 10.1382 14.3765 10.1322 14.9411C10.1307 15.0746 10.1374 15.2088 10.1292 15.3414C10.1106 15.6392 9.87653 15.8729 9.58955 15.8875C9.31971 15.9014 9.04391 15.687 9.01782 15.4008C8.95521 14.7229 9.04466 14.078 9.49414 13.5381C9.91156 13.036 10.4453 12.7838 11.0826 12.7745C11.5157 12.7676 11.9487 12.773 12.3818 12.773C12.3818 12.7799 12.3818 12.7877 12.3818 12.7946V12.7961Z" fill="#999999"/>
<path d="M13.7412 10.0506C13.7442 11.125 12.9056 11.9989 11.871 11.9997C10.8371 11.9997 9.99703 11.1258 10 10.0521C10.003 8.98538 10.8311 8.12075 11.8613 8.10995C12.8892 8.09992 13.739 8.9769 13.7412 10.0506ZM12.6156 10.0776C12.6246 9.63714 12.2944 9.28002 11.874 9.27617C11.4699 9.27308 11.1338 9.61323 11.1248 10.0328C11.1159 10.4655 11.4371 10.8211 11.8486 10.8319C12.2623 10.8435 12.6067 10.5041 12.6156 10.0768V10.0776Z" fill="#999999"/>
</g>
<defs>
<clipPath id="clip0_329_9453">
<rect width="18" height="14" fill="white" transform="translate(3 5)"/>
</clipPath>
</defs>
</svg>
