<svg width="75" height="76" viewBox="0 0 75 76" fill="none" xmlns="http://www.w3.org/2000/svg">
<g clip-path="url(#clip0_84_64)">
<path d="M67.191 31.0201L66.857 30.8634L66.8638 30.4953C66.9274 27.1077 66.5435 24.07 65.6892 21.2049C62.8491 11.6828 55.8649 4.485 46.5291 1.45638C43.5186 0.4794 40.4536 0 37.4227 0C31.1065 0 24.9265 2.08573 19.6554 6.12087C12.1031 11.9055 8.22249 19.8235 8.11798 29.6524V29.7205C8.11344 30.2204 8.10889 30.9043 7.2228 31.37C2.32655 33.9488 -0.102256 37.9612 0.00225785 43.296C0.1045 48.5285 2.65146 52.4182 7.56815 54.8538C7.87487 55.0061 8.27248 55.1083 8.65645 55.2083C9.37669 55.3946 10.1242 55.5877 10.59 56.1489C11.0875 56.7464 11.1807 57.5598 11.2738 58.346C11.3193 58.7413 11.3647 59.1139 11.4533 59.4434C13.8003 67.9999 20.9641 74.0798 29.7023 74.9364C31.4291 75.1045 33.224 75.0591 34.9621 75.0136C35.5847 74.9977 36.2231 74.9818 36.8593 74.975V68.1225H32.5992V70.9353L31.9676 70.8626C31.6381 70.824 31.32 70.7945 31.0088 70.7672C30.334 70.7036 29.6978 70.6445 29.0548 70.5195C20.746 68.8905 15.1568 62.1039 15.1499 53.6292C15.1454 48.2536 15.1454 42.8779 15.1477 37.5023V29.9432H12.3553L12.3803 29.3525C12.7802 19.7645 16.8767 12.5848 24.5539 8.01803C33.2535 2.84005 42.3871 2.95592 50.9641 8.34747C58.3164 12.9688 62.2311 20.0417 62.5992 29.3684L62.6219 29.9591H59.8977V56.0535C68.3588 56.6169 72.9642 51.673 74.457 46.7836C76.0997 41.4079 74.1321 34.2692 67.1933 31.0201H67.191ZM10.7854 51.3776L10.0583 51.1663C6.75703 50.2052 4.2646 46.704 4.26006 43.0211C4.25779 39.304 6.69341 35.8732 10.0538 34.8622L10.7854 34.6418V51.3776ZM64.928 51.1754L64.1964 51.3958V34.6418L64.9258 34.8576C68.2861 35.855 70.724 39.2858 70.7263 43.0142C70.7263 46.7268 68.2884 50.1598 64.9303 51.1754H64.928Z" fill="#6B6C6F"/>
</g>
<defs>
<clipPath id="clip0_84_64">
<rect width="75" height="75.0568" fill="white"/>
</clipPath>
</defs>
</svg>
