<svg width="27" height="34" viewBox="0 0 27 34" fill="none" xmlns="http://www.w3.org/2000/svg">
<g clip-path="url(#clip0_359_5844)">
<path d="M7.44683 25.9641C6.60675 25.8298 6.10407 25.2778 5.7471 24.5449C5.70407 24.4564 5.64148 24.3768 5.60432 24.2863C5.12022 23.1238 4.32121 22.2854 3.16426 21.808C3.01855 21.7484 2.88652 21.6539 2.74765 21.5773C1.90365 21.1119 1.42542 20.4287 1.49388 19.4143C1.51246 19.1428 1.48801 18.8673 1.51539 18.5968C1.62395 17.5366 1.37554 16.572 0.741814 15.7296C-0.255723 14.404 -0.240075 13.1032 0.745726 11.7845C1.37848 10.9381 1.61613 9.97645 1.51637 8.91731C1.48117 8.53642 1.50072 8.14956 1.50953 7.76568C1.5242 7.11229 1.79901 6.59316 2.33983 6.23912C2.68701 6.01138 3.03811 5.77867 3.41267 5.60562C4.39456 5.15114 5.06252 4.40725 5.50261 3.41872C5.64735 3.09351 5.83903 2.78721 6.03267 2.48786C6.43071 1.87525 6.99598 1.559 7.72555 1.56397C8.20085 1.56795 8.6781 1.55204 9.15144 1.58486C9.92796 1.63955 10.6135 1.41181 11.259 0.993128C11.659 0.733564 12.0707 0.489911 12.4903 0.266148C13.1377 -0.0789436 13.8047 -0.0868996 14.455 0.255209C14.9088 0.493889 15.3528 0.754448 15.7841 1.03291C16.4002 1.43071 17.0555 1.63359 17.7919 1.58585C18.2535 1.55502 18.718 1.56894 19.1806 1.56497C19.9777 1.558 20.5928 1.88917 20.9996 2.59328C21.2089 2.95627 21.429 3.31529 21.606 3.69519C22.0118 4.56538 22.6642 5.16208 23.5101 5.56584C23.7526 5.6812 23.9835 5.82143 24.2211 5.94674C25.2411 6.48178 25.6196 7.36688 25.4846 8.47774C25.3321 9.73777 25.5267 10.8924 26.2983 11.9197C26.4382 12.1057 26.5379 12.3215 26.6533 12.5254C27.1345 13.3776 27.1091 14.224 26.6201 15.0623C26.4587 15.3398 26.312 15.6272 26.1262 15.8868C25.4846 16.7848 25.3516 17.7952 25.4758 18.8593C25.6265 20.1412 25.2353 21.1258 24.0343 21.6917C23.9238 21.7434 23.8231 21.818 23.7116 21.8647C22.6847 22.2983 21.9444 23.0233 21.4935 24.0636C21.3517 24.3898 21.1591 24.6961 20.9674 24.9974C20.673 25.4598 20.2799 25.798 19.7322 25.9133C19.6275 26.0347 19.4887 26.0734 19.3381 26.0725C18.8637 26.0695 18.3904 26.0874 17.9161 26.0386C17.2726 25.973 16.6564 26.1053 16.0922 26.4394C15.6814 26.6821 15.2736 26.9297 14.8687 27.1813C13.9191 27.774 12.9832 27.7382 12.0492 27.1405C11.6991 26.9168 11.3382 26.7079 10.9852 26.4901C10.3583 26.1033 9.68151 25.972 8.95487 26.0565C8.54314 26.1043 8.1275 26.0764 7.71382 26.0715C7.61406 26.0705 7.52018 26.0456 7.44976 25.966L7.44683 25.9641Z" fill="#F8BD48"/>
<path d="M19.7259 26.6405C19.7288 28.7438 19.7347 30.8482 19.7337 32.9516C19.7337 33.3474 19.5362 33.6348 19.189 33.8019C18.8085 33.9859 18.4555 33.9053 18.1386 33.6418C17.236 32.8889 16.3352 32.1331 15.4336 31.3783C15.1245 31.1187 14.8204 30.8522 14.5064 30.5996C14.2414 30.3868 13.9245 30.3042 13.594 30.2684C13.5353 30.2187 13.5001 30.1511 13.4981 30.0775C13.4796 29.4947 13.4287 28.9109 13.5294 28.3301C13.5901 28.2058 13.7074 28.1601 13.8267 28.1382C14.3803 28.0387 14.8517 27.7523 15.323 27.4649C15.5431 27.3317 15.7622 27.1974 15.9822 27.0631C16.5074 26.7429 17.0629 26.5679 17.6858 26.6057C18.3655 26.6464 19.0482 26.5709 19.7278 26.6405H19.7259Z" fill="#E83565"/>
<path d="M13.59 28.2788C13.5909 28.9421 13.5919 29.6054 13.5929 30.2688C13.1694 30.2668 12.8311 30.4388 12.5103 30.7233C11.3905 31.7168 10.2521 32.6874 9.12354 33.67C8.78321 33.9663 8.41451 34.1125 7.9842 33.8977C7.57443 33.6928 7.44338 33.3299 7.44533 32.8843C7.45218 30.8028 7.45218 28.7223 7.45511 26.6408C8.36463 26.5891 9.27415 26.5921 10.1827 26.6438C10.3763 26.6548 10.5602 26.7343 10.7352 26.8248C11.6839 27.3151 12.5523 27.9695 13.59 28.2798V28.2788Z" fill="#F35170"/>
<path d="M13.5919 28.2791C12.8643 28.2562 12.2716 27.8713 11.7044 27.4825C10.878 26.9156 10.0154 26.6182 9.00616 26.7028C8.49565 26.7455 7.96657 26.8062 7.45606 26.6411C7.45411 26.4154 7.45117 26.1896 7.44922 25.9639C8.04676 25.9649 8.64235 25.9609 9.2399 25.9231C10.0233 25.8734 10.7186 26.1578 11.365 26.5914C11.68 26.8022 12.0076 26.9952 12.3372 27.1821C13.0853 27.6068 13.8452 27.6326 14.5992 27.203C15.0774 26.9305 15.5469 26.6421 16.0173 26.3567C16.6383 25.9798 17.3102 25.8833 18.0202 25.937C18.5903 25.9798 19.1634 26.0126 19.7336 25.9102C19.7316 26.1538 19.7297 26.3975 19.7268 26.6411C19.5977 26.7326 19.449 26.7167 19.3043 26.7167C18.7097 26.7167 18.1131 26.7406 17.5204 26.7087C16.5816 26.659 15.9136 27.2557 15.1743 27.6804C14.6755 27.9678 14.1718 28.2263 13.5899 28.2791H13.5919Z" fill="#CB104A"/>
<path d="M7.52808 5.49929C7.91927 5.35012 8.22147 5.05177 8.58039 4.8469C9.81655 4.14478 11.127 3.7072 12.5412 3.562C15.3509 3.2726 17.8311 4.06721 19.9953 5.88317C21.9493 7.52211 23.1483 9.62249 23.5454 12.1714C24.0099 15.1569 23.2755 17.8311 21.4339 20.1891C20.0579 21.9513 18.2888 23.1487 16.145 23.6887C12.8874 24.5092 9.9075 23.8618 7.26305 21.7355C5.73349 20.5053 4.66554 18.933 4.02692 17.0653C3.59563 15.8033 3.41471 14.4926 3.50175 13.1609C3.62302 11.3002 4.1922 9.58172 5.22201 8.0293C5.3022 7.90897 5.46651 7.78167 5.41858 7.65736C5.35991 7.50818 5.15355 7.6315 5.02055 7.57979C5.03522 7.44752 5.14182 7.4326 5.23472 7.42663C5.58484 7.40376 5.93789 7.38685 6.28605 7.43459C6.60291 7.47835 6.66355 7.63647 6.50903 7.92587C6.34375 8.23616 6.07579 8.49075 6.022 8.8607C5.46846 9.75277 5.08998 10.7194 4.83962 11.7408C4.73987 12.1485 4.70173 12.5642 4.65185 12.9799C4.5785 13.321 4.63131 13.6671 4.61664 14.0102C4.73009 15.9923 5.30221 17.8122 6.5413 19.3696C8.17746 21.4252 10.2821 22.6027 12.8952 22.8305C14.8385 23.0005 16.6301 22.545 18.2673 21.5108C20.541 20.0737 21.9229 17.9912 22.41 15.3061C22.4872 14.8794 22.5175 14.4468 22.5606 14.0152C22.5479 13.6502 22.5948 13.2832 22.5283 12.9203C22.3591 11.1908 21.785 9.61454 20.7298 8.24511C19.1347 6.17655 17.0438 4.99607 14.4649 4.70369C12.327 4.46103 10.3877 4.98712 8.60386 6.17655C8.553 6.21036 8.50117 6.24218 8.44445 6.26506C8.10998 6.22627 8.22245 6.01941 8.29971 5.84239C8.35838 5.70814 8.46009 5.59775 8.52855 5.46747C8.59603 5.34017 8.68112 5.21984 8.71632 5.04281C8.52464 5.28547 8.34371 5.4983 8.1667 5.7141C8.07379 5.82748 7.97697 5.97168 7.81072 5.89709C7.65326 5.82648 7.48407 5.732 7.52808 5.49929Z" fill="#FAD790"/>
<path d="M7.52787 5.4993C7.84474 5.96771 7.833 5.95677 8.17431 5.56295C8.38654 5.31731 8.55279 5.02194 8.90095 4.80116C8.8012 5.23576 8.588 5.53013 8.39925 5.83544C8.31221 5.97567 8.21148 6.10893 8.38751 6.25313C9.06525 6.44209 9.73712 6.21335 10.4119 6.21932C10.6046 6.25114 10.9127 6.15667 10.9361 6.41623C10.9576 6.65292 10.6447 6.66784 10.4589 6.72751C10.0178 6.86873 9.56598 6.97216 9.1122 7.06365C8.98115 7.08951 8.84912 7.11338 8.7347 7.19393C8.55084 7.32222 8.48727 7.45051 8.68286 7.63549C8.86966 7.81251 9.09557 7.94677 9.25107 8.15561C9.32246 8.25208 9.42515 8.36943 9.32148 8.4838C9.23738 8.57629 9.11611 8.49872 9.01537 8.45794C8.69949 8.32965 8.45304 8.07705 8.11172 7.92887C8.03349 8.17849 8.05402 8.40722 8.07945 8.63994C8.12835 9.08149 8.18801 9.52405 8.18605 9.96859C8.18605 10.1675 8.19779 10.4639 7.96209 10.5016C7.70586 10.5424 7.67946 10.2381 7.61198 10.0531C7.41834 9.51808 7.35672 8.94525 7.17873 8.40523C6.98509 7.95572 6.93228 7.95671 6.61542 8.33065C6.43547 8.54247 6.3054 8.82989 5.97582 8.86171C5.84771 8.75828 5.93866 8.66579 5.99342 8.57529C6.14599 8.32468 6.28877 8.06611 6.4609 7.83041C6.59879 7.64146 6.52936 7.54897 6.34843 7.54002C5.90638 7.51913 5.45945 7.4525 5.02131 7.5798C4.62817 7.55494 4.22426 7.65737 3.78906 7.46841C4.15189 7.21084 4.54406 7.17504 4.90885 7.07061C5.3284 6.95028 5.77729 6.93735 6.16946 6.71259C6.53914 6.50076 6.54011 6.458 6.21445 6.1865C5.95431 5.96871 5.66874 5.77577 5.4262 5.42471C5.81152 5.47543 6.03939 5.70815 6.31224 5.83743C6.4384 5.8971 6.55381 6.08606 6.69268 5.99158C6.86382 5.87522 6.88143 5.64848 6.85502 5.44958C6.7807 4.87277 6.70735 4.29596 6.71615 3.71218C6.71811 3.55207 6.70246 3.38698 6.84329 3.20996C7.28338 3.92302 7.3 4.74547 7.52885 5.49831L7.52787 5.4993Z" fill="#FEFEFE"/>
<path d="M8.95237 29.7884C8.95237 30.22 8.96508 30.6536 8.94455 31.0842C8.93868 31.2125 8.91619 31.4104 8.7069 31.3955C8.53966 31.3836 8.50055 31.2215 8.48196 31.0942C8.34602 30.1484 8.34016 29.1997 8.49077 28.2549C8.50739 28.1465 8.52108 27.9834 8.68832 27.9844C8.86533 27.9854 8.87707 28.1445 8.9113 28.2748C9.04234 28.774 8.95922 29.2842 8.95335 29.7884H8.95237Z" fill="#F9A7B7"/>
<path d="M7.2295 8.32886C7.47106 8.82114 7.47497 9.38104 7.65883 9.88923C7.73316 10.0941 7.7713 10.3149 7.95809 10.5028C8.11848 10.2124 8.09696 9.92006 8.07642 9.63464C8.04806 9.24082 7.99819 8.84799 7.96005 8.45516C7.95124 8.36963 7.94244 8.28212 7.94635 8.19659C7.9532 8.0494 7.95516 7.86741 8.08229 7.79879C8.19085 7.74011 8.28571 7.90122 8.38644 7.96388C8.67299 8.14388 8.93705 8.36565 9.3478 8.49196C9.19034 8.17571 8.95269 8.03051 8.76786 7.83658C8.62409 7.68442 8.28962 7.5621 8.37764 7.37712C8.47348 7.17524 8.72482 7.01612 9.02213 6.97335C9.5121 6.90175 9.99228 6.75357 10.4744 6.62727C10.6241 6.58848 10.7659 6.51887 10.9439 6.45124C10.7825 6.27124 10.5977 6.35975 10.448 6.31599C10.4774 6.12504 10.6475 6.11609 10.7756 6.07532C13.1639 5.3185 15.4895 5.47563 17.7222 6.63423C20.0664 7.8515 21.5891 9.78183 22.3794 12.3238C22.486 12.6669 22.5632 13.0159 22.5906 13.376C22.6141 13.6037 22.6141 13.8334 22.6551 14.0592C22.4116 19.1033 18.5124 22.9699 13.5912 22.9689C8.67788 22.9669 4.76108 19.1083 4.52734 14.0592C4.5694 13.8404 4.56451 13.6166 4.59189 13.3968C4.76304 12.0403 5.2931 10.828 6.0305 9.70127C6.28673 9.30944 6.59381 8.9544 6.89014 8.5934C6.98207 8.48102 7.07302 8.3577 7.23145 8.33085L7.2295 8.32886Z" fill="#F2A150"/>
<path d="M22.5175 13.394C22.2241 11.6745 21.4985 10.1748 20.3689 8.85506C19.0525 7.31757 17.4115 6.34693 15.4741 5.92228C13.7724 5.54934 12.0796 5.63686 10.4454 6.3161C9.973 6.36185 9.50064 6.40959 9.02827 6.45235C8.78965 6.47423 8.5696 6.4245 8.38672 6.25345C8.93341 5.74029 9.59941 5.41707 10.2791 5.16547C13.5504 3.95516 16.588 4.47429 19.3166 6.63434C21.1718 8.10322 22.2114 10.1012 22.5782 12.4601C22.5987 12.5934 22.5879 12.7326 22.5918 12.8689C22.6143 13.0509 22.719 13.2448 22.5175 13.394Z" fill="#EE7B56"/>
<path d="M7.23225 8.32857C6.5506 9.14307 5.87188 9.95856 5.42886 10.9441C5.07483 11.7298 4.79415 12.5363 4.66408 13.3936C4.44697 13.2752 4.5878 13.0952 4.58878 12.9401C4.64745 11.5567 5.11199 10.3027 5.77213 9.11224C5.82396 9.01875 5.90905 8.94516 5.97946 8.86162C6.22395 8.68062 6.41368 8.44393 6.60732 8.21122C6.96722 7.77563 7.01807 7.78557 7.23323 8.32857H7.23225Z" fill="#EE7B56"/>
<path d="M22.5195 13.3942C22.6594 13.2361 22.5596 13.0432 22.5939 12.8691C22.7327 13.259 22.6437 13.6618 22.6555 14.0586C22.5606 13.8477 22.5635 13.615 22.5195 13.3932V13.3942Z" fill="#EF8658"/>
<path d="M4.5868 12.9404C4.61907 13.0906 4.5291 13.2617 4.66211 13.3939C4.6181 13.6157 4.62103 13.8474 4.52617 14.0583C4.54084 13.6853 4.44499 13.3064 4.58582 12.9395L4.5868 12.9404Z" fill="#EF8458"/>
<path d="M18.9281 11.6879C18.9702 11.7098 19.0132 11.7506 19.0543 11.7496C19.3486 11.7446 19.5873 11.8381 19.6978 12.1344C19.8151 12.4497 19.6459 12.6923 19.4484 12.8972C18.7403 13.6312 18.0372 14.3721 17.2959 15.0712C17.0367 15.3158 16.9976 15.5605 17.0465 15.8618C17.2059 16.8444 17.38 17.825 17.5325 18.8085C17.5736 19.076 17.5893 19.3555 17.3076 19.5375C17.0259 19.7195 16.7834 19.6161 16.5242 19.4758C15.6861 19.0243 14.8402 18.5848 13.9972 18.1412C13.7458 18.0089 13.5267 18.0109 13.2529 18.1621C12.3864 18.6395 11.4984 19.08 10.6094 19.5146C10.0598 19.7831 9.68916 19.5912 9.63146 19.0452C9.51508 18.902 9.55909 18.7419 9.5855 18.5858C9.7273 17.7484 9.83782 16.906 9.98647 16.0697C10.0491 15.7176 10.0823 15.3855 9.80652 15.103C9.77327 15.0692 9.77425 15.0115 9.77914 14.9618C9.09064 14.2696 8.40508 13.5735 7.71169 12.8863C7.51414 12.6904 7.50925 12.4517 7.51219 12.2031C7.51708 11.8888 7.64421 11.7327 8.009 11.6561C8.72292 11.5059 9.44565 11.4065 10.1664 11.2911C10.406 11.2533 10.6446 11.1857 10.8862 11.1757C11.2833 11.1588 11.4847 10.94 11.6441 10.5949C12.0285 9.76851 12.4363 8.95302 12.8519 8.14151C12.9722 7.90681 13.073 7.5995 13.4426 7.65619C13.8446 7.6005 14.0734 7.81631 14.2387 8.15941C14.7003 9.11314 15.1707 10.0609 15.6382 11.0116C16.5291 11.2523 17.4494 11.3199 18.3501 11.5029C18.5487 11.5437 18.7648 11.5308 18.9281 11.6859V11.6879Z" fill="#F8CE6B"/>
<path d="M13.4413 7.65841C13.1743 7.72405 13.055 7.94185 12.9455 8.16362C12.5142 9.03679 12.079 9.90798 11.6614 10.7881C11.5274 11.0705 11.3563 11.2068 11.0326 11.2525C10.038 11.3918 9.05216 11.5887 8.06049 11.7448C7.77199 11.7906 7.59791 11.9308 7.51282 12.2043C7.44143 12.2888 7.41796 12.4718 7.24779 12.2739C6.9231 11.896 7.06882 11.3341 7.56074 11.2366C8.4155 11.0676 9.27612 10.9353 10.1358 10.7921C10.3382 10.7583 10.5436 10.7404 10.748 10.7125C10.9886 10.6787 11.1284 10.5246 11.2321 10.3098C11.6575 9.43161 12.0868 8.55645 12.522 7.68228C12.7137 7.29741 13.0804 7.19895 13.3993 7.41576C13.5186 7.49631 13.498 7.56493 13.4423 7.65841H13.4413Z" fill="#EE7B56"/>
<path d="M9.77865 14.9629C10.3439 15.3348 10.119 15.8629 10.0437 16.3592C9.90774 17.2552 9.76887 18.1503 9.63098 19.0463C9.24468 19.0244 9.16742 18.741 9.20947 18.4446C9.3503 17.472 9.51264 16.5014 9.6877 15.5347C9.72193 15.3448 9.63391 15.1339 9.77865 14.9639V14.9629Z" fill="#EE7B56"/>
<path d="M18.9276 11.6881C17.9262 11.533 16.9247 11.3798 15.9242 11.2187C15.8059 11.1998 15.6944 11.1372 15.6367 11.0138C15.8323 10.8289 16.0348 11.0069 16.2196 11.0297C16.9942 11.1242 17.7648 11.2625 18.5345 11.3967C18.6861 11.4236 18.8367 11.4882 18.9726 11.5638C19.086 11.6274 19.0127 11.6712 18.9276 11.6881Z" fill="#EE7D56"/>
<path d="M13.5216 8.26172C13.7866 8.26172 13.9284 8.40592 14.0321 8.6277C14.3871 9.38849 14.7763 10.1344 15.102 10.9081C15.2878 11.3486 15.5626 11.5545 16.0213 11.6052C16.7313 11.6848 17.4374 11.8041 18.1455 11.9095C18.2658 11.9274 18.3861 11.9483 18.5015 11.9831C18.9425 12.1134 19.0814 12.6156 18.7567 12.9428C17.7914 13.9165 16.5954 14.4425 15.2898 14.73C13.4952 15.1248 11.7661 14.9239 10.1221 14.0795C9.51384 13.7673 8.91825 13.4291 8.38526 12.9896C8.22487 12.8573 8.10849 12.7101 8.14859 12.4893C8.19357 12.2437 8.30408 12.0329 8.56912 11.9861C9.17742 11.8787 9.78865 11.7842 10.3989 11.6878C10.7461 11.6331 11.0933 11.5754 11.4424 11.5386C11.6664 11.5147 11.7466 11.3556 11.8268 11.1875C12.2258 10.3522 12.6248 9.51578 13.0189 8.67742C13.1255 8.44968 13.2732 8.28658 13.5216 8.26271V8.26172Z" fill="#FBE6B4"/>
<path d="M13.6768 9.67299C13.6171 10.213 13.489 10.7321 13.18 11.1946C13.0773 11.3487 12.9502 11.4979 12.7731 11.4293C12.5844 11.3567 12.5541 11.1309 12.5844 10.9509C12.6705 10.4388 12.8142 9.94449 13.1145 9.50791C13.2269 9.34381 13.355 9.19165 13.5506 9.24536C13.7638 9.30403 13.622 9.52282 13.6768 9.672V9.67299Z" fill="#FDF7E8"/>
</g>
<defs>
<clipPath id="clip0_359_5844">
<rect width="27" height="34" fill="white"/>
</clipPath>
</defs>
</svg>
