<svg width="79" height="79" viewBox="0 0 79 79" fill="none" xmlns="http://www.w3.org/2000/svg">
<g clip-path="url(#clip0_84_70)">
<path d="M64.2857 24.9053C64.4067 25.0341 64.5316 25.1707 64.6643 25.3151C64.9708 25.6487 65.285 25.9941 65.6265 26.3219C66.1789 26.8526 66.8093 27.1004 67.4046 27.0224C67.9863 26.9463 68.5171 26.556 68.8977 25.9238C71.4526 21.6917 74.0367 17.3815 76.5331 13.2118L78.5844 9.78745C78.6937 9.60403 78.7932 9.41477 78.8967 9.2138C78.9298 9.14745 78.965 9.08307 79.0001 9.01672V8.1543C78.8791 7.9943 78.762 7.8304 78.6449 7.66845C78.3365 7.24114 78.0476 6.83724 77.7041 6.48407C76.2501 4.98751 74.7433 3.49094 73.2873 2.0412L72.1552 0.91341C71.0583 -0.181211 70.3538 -0.265113 69.0207 0.532926C63.7899 3.66459 58.5611 6.80017 53.3343 9.93769C52.5204 10.4274 52.0481 11.0069 51.9739 11.6177C51.8978 12.2323 52.2159 12.9172 52.8932 13.5981C53.1781 13.883 53.467 14.1601 53.7481 14.4293C53.873 14.5484 53.9959 14.6654 54.113 14.7786L54.398 15.0537L41.0518 28.3999L40.7766 28.1228C40.4506 27.795 40.1188 27.4653 39.787 27.1336C38.6355 25.9843 37.4468 24.796 36.2875 23.5902C35.9557 23.2448 36.0572 22.5892 36.0962 22.3961C37.4117 15.9552 35.8522 10.3104 31.4607 5.61384C25.9841 -0.245601 16.8517 -1.709 9.74922 2.13291C9.09732 2.48607 8.6894 3.00899 8.60157 3.60801C8.50789 4.2363 8.77138 4.8997 9.33934 5.47335C10.4089 6.55236 11.4843 7.62552 12.5598 8.69868C14.2129 10.3494 15.9227 12.0567 17.5875 13.7562C18.1145 14.2947 18.499 14.9562 18.6454 15.5708C18.9011 16.6596 18.4541 17.6586 17.4158 18.3103C16.4653 18.9073 15.261 18.8429 14.3456 18.1464C14.0939 17.9532 13.8733 17.7327 13.6586 17.52L13.6176 17.4791C12.4817 16.3435 11.3458 15.2059 10.2098 14.0703C8.68355 12.5445 7.15921 11.0167 5.63097 9.49282C4.93419 8.79819 4.2335 8.486 3.60113 8.59136C2.96875 8.69673 2.40274 9.21965 1.96749 10.1035C-0.614704 15.3405 -0.651788 21.2761 1.86405 26.3882C4.37989 31.5004 9.10708 35.0925 14.8316 36.2418C17.2753 36.7335 19.6876 36.7022 22.0044 36.15C22.6953 35.9861 23.4897 35.9354 24.1611 36.8135C24.2177 36.8876 24.2977 36.9617 24.3992 37.0554C24.5768 37.2193 24.8189 37.4437 25.0921 37.8242L25.3478 38.1793L24.9652 38.392C24.8716 38.4447 24.7701 38.4915 24.6705 38.5383C24.5007 38.6183 24.3387 38.6925 24.2431 38.7881C21.0012 42.0212 17.7632 45.2582 14.5252 48.4953C10.8949 52.1245 7.26461 55.7537 3.62845 59.3771C1.11457 61.8824 -0.0701596 64.7058 0.00400779 68.0131C0.125018 73.4276 4.28034 78.091 9.66919 78.8598C9.81558 78.8812 9.94244 78.932 10.0537 78.9768C10.0732 78.9846 10.0927 78.9924 10.1122 79.0003H12.4915C12.5851 78.9788 12.6788 78.9554 12.7725 78.9339C13.0106 78.8773 13.2546 78.8188 13.5025 78.7681C15.7821 78.3154 17.7944 77.1895 19.6525 75.3261C24.0011 70.9652 28.4296 66.5399 32.7118 62.259C35.1867 59.7849 37.6615 57.3108 40.1364 54.8366C40.2613 54.7118 40.3764 54.5693 40.5502 54.3527C40.6536 54.2259 40.7727 54.0757 40.9229 53.8942L41.2274 53.5293L41.526 53.9001C41.6666 54.0737 41.8012 54.2357 41.9301 54.3898C42.2384 54.7586 42.5293 55.1079 42.7771 55.4864C42.9821 55.8005 42.9782 56.2532 42.9059 56.5713C41.0537 64.7526 44.766 72.9184 52.1457 76.8871C54.1735 77.9778 56.3615 78.6451 58.649 78.8734C58.8071 78.889 58.9515 78.9339 59.0803 78.9729C59.1154 78.9827 59.1486 78.9944 59.1838 79.0042H62.207C62.5857 78.9242 62.9663 78.85 63.3488 78.7759C64.2291 78.6042 65.1386 78.4266 66.0013 78.173C67.145 77.8354 68.2634 77.3242 69.1085 76.9183C69.8346 76.5691 70.2932 76.0383 70.3986 75.4237C70.506 74.7974 70.2444 74.1262 69.6589 73.5369C67.1255 70.9808 64.5355 68.3975 62.0314 65.898L61.3463 65.2151C60.8213 64.6921 60.2845 64.0248 60.2885 63.0453C60.2924 61.9878 60.7647 61.1605 61.6586 60.6532C62.5954 60.1205 63.5752 60.1537 64.4945 60.7449C64.7853 60.9322 65.0254 61.1722 65.2577 61.4044L65.3182 61.4649C66.6766 62.8209 68.035 64.179 69.3915 65.535C70.7148 66.858 72.0401 68.1828 73.3653 69.5057C74.0621 70.2023 74.7648 70.5145 75.3952 70.413C76.0256 70.3096 76.5936 69.7906 77.0327 68.9087C77.993 66.9867 78.6078 64.936 78.8615 62.8112C78.8811 62.6414 78.924 62.4892 78.9669 62.3409C78.9786 62.2961 78.9923 62.2531 79.004 62.2083V59.1839C78.8928 58.6922 78.7913 58.1927 78.6937 57.7088C78.479 56.6454 78.2584 55.5449 77.913 54.5186C75.3874 47.0221 67.5178 41.8514 59.6092 42.4934C59.0042 42.5422 58.3855 42.6456 57.7882 42.7431C57.3608 42.8134 56.9177 42.8875 56.4747 42.9422C56.301 42.9636 55.7096 43.0105 55.3875 42.6963C54.1931 41.5412 53.0142 40.3607 51.8744 39.2212L50.6428 37.992L64.0124 24.6185L64.2876 24.9112L64.2857 24.9053ZM70.0024 4.48215L74.5149 9.00502L66.8347 21.801L57.1871 12.1738L70.0044 4.4841L70.0024 4.48215ZM38.0421 51.3752C38.0089 51.4123 37.9738 51.4513 37.9367 51.4943C37.8411 51.6035 37.7318 51.7284 37.6108 51.8474C30.6898 58.7703 23.7669 65.6931 16.8439 72.614C15.2025 74.253 13.3756 75.0764 11.3907 75.0764C10.5416 75.0764 9.66529 74.9262 8.75967 74.6257C6.60881 73.9096 4.91467 72.1008 4.2296 69.7867C3.54648 67.4823 3.97977 65.0551 5.387 63.2951C5.77736 62.8053 6.18723 62.3468 6.60686 61.9273C10.8832 57.6464 15.1615 53.3654 19.4398 49.0865C21.9732 46.5538 24.5046 44.0192 27.038 41.4866C27.1512 41.3734 27.2547 41.2485 27.364 41.1158C27.4186 41.0515 27.4713 40.9871 27.526 40.9227L27.8012 40.6046L38.2939 51.0982L38.046 51.3733L38.0421 51.3752ZM53.3772 46.2397C54.2946 47.1626 55.1787 47.3928 56.4298 47.0319C61.9104 45.4494 66.7176 46.585 70.7148 50.4055C74.5657 54.0854 75.8812 58.8034 74.6203 64.4268L74.4642 65.1194L72.0928 62.7448C70.6816 61.3322 69.3154 59.9624 67.9511 58.5927C66.4092 57.0415 64.7326 56.3293 62.8219 56.4152C59.984 56.5439 57.9346 57.9664 56.8963 60.5263C55.8169 63.1897 56.3498 65.6482 58.4811 67.8355C59.8122 69.1994 61.1882 70.5672 62.5174 71.8881C62.9878 72.3545 63.4562 72.8208 63.9246 73.2891C64.028 73.3925 64.1491 73.492 64.3169 73.6306C64.4165 73.7125 64.5316 73.8081 64.6702 73.9252L65.2987 74.4598L64.4867 74.6062C64.1939 74.6588 63.9285 74.7115 63.6787 74.7603C63.179 74.8598 62.7477 74.9437 62.3027 74.9944C61.7425 75.0588 61.1863 75.0901 60.6378 75.0901C53.9335 75.0901 48.0879 70.4618 46.6729 63.7712C46.1303 61.2034 46.2396 58.7547 46.9988 56.4952C47.4224 55.2366 47.1862 54.3196 46.1849 53.3284C39.6719 46.8719 32.95 40.152 25.6347 32.7803C24.6979 31.836 23.8156 31.5979 22.5899 31.9569C17.1425 33.5511 12.3548 32.4447 8.3576 28.6692C4.45015 24.9775 3.08976 20.3551 4.31743 14.9327C4.3389 14.841 4.37403 14.7728 4.41892 14.6849C4.44234 14.6401 4.47162 14.5815 4.51065 14.4996L4.75463 13.9884L5.14498 14.3981C5.40066 14.6674 5.65049 14.9347 5.89837 15.1962C6.43901 15.7737 6.95232 16.3181 7.48516 16.8508C7.84819 17.2137 8.20927 17.5805 8.56839 17.9473C9.58722 18.9873 10.6412 20.0605 11.7556 21.0146C14.33 23.2156 17.8335 23.1434 20.4742 20.8371C22.8007 18.802 23.2633 15.2001 21.5496 12.4567C21.2081 11.9123 20.7533 11.4206 20.3122 10.9718C19.0982 9.73867 17.851 8.4938 16.6448 7.29187C16.1061 6.75529 15.5675 6.21871 15.0307 5.68018C14.9078 5.55725 14.7906 5.43043 14.656 5.28604C14.5896 5.21384 14.5194 5.13775 14.4413 5.05385L13.9982 4.58361L14.6208 4.40995C16.7951 3.80508 18.8152 3.70947 20.7904 4.11532C26.755 5.33872 30.5981 8.95429 32.2122 14.8606C32.9012 17.3835 32.8289 19.9395 31.9955 22.4566C31.5661 23.7561 31.8199 24.7102 32.8719 25.7521C39.301 32.1169 46.0073 38.8193 53.3714 46.2397H53.3772ZM47.7717 34.9149L44.079 31.2233L57.1754 18.1269L60.874 21.8185L47.7717 34.9149Z" fill="#6B6C6F"/>
<path d="M12.6753 66.758C13.0402 67.1326 13.5165 67.3434 14.0142 67.3473C14.547 67.3473 15.0896 67.117 15.5229 66.6858C21.2357 61.002 25.5765 56.6547 29.5991 52.5904C29.845 52.3426 30.0168 51.9894 30.1983 51.6128C30.2685 51.4684 30.3408 51.3201 30.4188 51.1738C30.2529 50.2724 29.7962 49.6304 29.1248 49.3592C28.8359 49.2421 28.5588 49.1836 28.2914 49.1836C27.7839 49.1836 27.3194 49.3943 26.8998 49.8119C22.5512 54.1513 17.6211 59.0723 12.7631 63.958C11.9258 64.799 11.8906 65.9502 12.6772 66.758H12.6753Z" fill="#6B6C6F"/>
</g>
<defs>
<clipPath id="clip0_84_70">
<rect width="79" height="79" fill="white"/>
</clipPath>
</defs>
</svg>
