<svg width="75" height="70" viewBox="0 0 75 70" fill="none" xmlns="http://www.w3.org/2000/svg">
<g clip-path="url(#clip0_84_58)">
<path d="M70.0121 20.5098C68.2647 20.5058 66.5192 20.5058 64.7343 20.5078H62.0106V15.3148C62.0106 12.1493 62.0106 8.98375 62.0106 5.81823C62.0046 2.28588 59.7247 0.00197228 56.2002 0.00197228C39.42 0 22.6398 0 5.86162 0C2.85389 0 0.86386 1.54035 0.102559 4.45144C0.0808636 4.53822 0.0374734 4.60331 0 4.65459V44.8832C0.0335288 44.9207 0.0650853 44.968 0.0828359 45.0292C1.01967 48.1631 2.80459 49.5004 6.05096 49.5023H7.91477H9.15534V50.6522C9.15534 51.3898 9.15534 52.1274 9.15534 52.867C9.15731 54.6815 9.15928 56.5592 9.14745 58.4052C9.14153 59.4249 9.52218 60.1093 10.3131 60.4958C11.1 60.8824 11.8771 60.766 12.6877 60.1408C15.5436 57.9358 18.4053 55.7387 21.2652 53.5396L23.624 51.7271C23.7522 51.6284 23.8824 51.5338 24.0362 51.4214L24.7048 50.9322L24.7581 51.445C24.766 51.5279 24.7758 51.6028 24.7857 51.6718C24.8054 51.8198 24.8212 51.948 24.8212 52.084C24.8232 52.6343 24.8212 53.1826 24.8212 53.7329C24.8212 54.3896 24.8212 55.0444 24.8232 55.7012C24.8409 58.6853 26.8467 60.697 29.8111 60.7049C32.7636 60.7128 35.7654 60.7108 38.6686 60.7088C39.923 60.7088 41.1773 60.7069 42.4317 60.7088H42.4455C43.2344 60.7088 44.0253 60.7088 44.8142 60.7088C45.5893 60.7088 46.3743 60.7088 47.1612 60.7088C48.9481 60.7088 50.7567 60.7128 52.5456 60.7325C53.0288 60.7384 53.5928 60.9317 53.9794 61.2256C57.1923 63.6613 60.4347 66.1681 63.5726 68.592L64.0479 68.9589C64.5804 69.3711 65.1761 69.736 65.9176 69.6255C67.0142 69.4618 67.7065 68.6157 67.7203 67.4205C67.7361 66.1306 67.7321 64.8171 67.7302 63.547C67.7302 62.9947 67.7282 62.4405 67.7282 61.8863V60.7128H68.7222C69.1916 60.7147 69.6354 60.7167 70.0792 60.7128C72.9686 60.6812 74.9901 58.6577 74.9921 55.79C75 45.3704 75 35.1638 74.9921 25.4543C74.9901 22.5531 72.9409 20.5236 70.0101 20.5157L70.0121 20.5098ZM26.5864 45.3586C25.5312 45.3586 24.7127 45.6327 23.9337 46.2481C21.6931 48.0152 19.3895 49.7804 17.1628 51.4864C16.3423 52.1156 15.5219 52.7428 14.7034 53.3739C14.5259 53.512 14.3444 53.6441 14.1275 53.8058L13.2892 54.4311V51.9085C13.2892 50.4983 13.2892 49.1394 13.2892 47.7805C13.2873 46.179 12.5062 45.3921 10.9028 45.3743C9.88705 45.3645 8.85358 45.3664 7.85363 45.3684C7.19686 45.3684 6.54206 45.3704 5.88529 45.3684C4.57767 45.3645 4.13785 44.9286 4.13785 43.6387C4.13785 31.0418 4.13785 18.4448 4.13785 5.84782C4.13785 4.61711 4.61711 4.13588 5.84387 4.13588C22.6241 4.13588 39.4042 4.1339 56.1844 4.13588C57.4368 4.13588 57.8826 4.60528 57.8826 5.92671C57.8826 18.4744 57.8826 31.022 57.8826 43.5717C57.8826 44.9661 57.4723 45.3704 56.0562 45.3704H50.5043C42.6703 45.3743 34.5721 45.3763 26.6041 45.3586H26.5923H26.5864ZM70.6097 56.3422C70.375 56.571 70.0397 56.5907 69.7735 56.5848C68.4579 56.5493 67.1089 56.5631 65.9472 56.5789C64.3773 56.6006 63.6101 57.3737 63.6002 58.9417C63.5963 59.7621 63.5963 60.5826 63.5982 61.4622V63.3103L63.1328 62.9789C63.0204 62.9 62.9257 62.833 62.8389 62.7718C62.6732 62.6574 62.545 62.5667 62.4208 62.4701C61.8449 62.0283 61.267 61.5865 60.6891 61.1447C59.0659 59.9041 57.3875 58.6202 55.7564 57.3323C55.0938 56.8096 54.3778 56.567 53.5001 56.567H53.4923C47.4196 56.5769 41.2464 56.5769 35.2782 56.5749H30.316C29.0991 56.5749 28.961 56.4349 28.961 55.2298V51.5377V49.5023H37.4852C43.7275 49.5023 49.9698 49.5023 56.2101 49.5023C59.0048 49.5023 61.0855 48.0349 61.7758 45.5814C61.9277 45.043 62.0027 44.4276 62.0046 43.6959C62.0184 39.1261 62.0165 34.4794 62.0165 29.9846V24.7265L62.2808 24.6989C62.3498 24.691 62.4129 24.6831 62.4721 24.6752C62.6003 24.6595 62.7225 24.6437 62.8507 24.6417C63.5726 24.6417 64.2944 24.6417 65.0163 24.6417C66.5803 24.6437 68.1976 24.6476 69.7853 24.6259C70.0515 24.6239 70.3849 24.6476 70.6176 24.8764C70.8483 25.1052 70.8799 25.4385 70.8799 25.7343C70.8641 35.9606 70.8661 45.968 70.8799 55.4803C70.8799 55.7584 70.8503 56.1075 70.6136 56.3383L70.6097 56.3422Z" fill="#6B6C6F"/>
<path d="M38.2761 18.1211V18.1152C38.2998 16.0285 37.5345 14.0996 36.1224 12.6816C34.7043 11.2595 32.7735 10.4785 30.6769 10.4785C30.6532 10.4785 30.6316 10.4785 30.6079 10.4785C28.7066 10.4943 26.9671 11.2201 25.7087 12.5238C24.3794 13.9004 23.6793 15.8057 23.7345 17.8943C23.7641 18.9968 24.5431 19.8528 25.5884 19.9277C26.7185 20.0086 27.61 19.3163 27.8092 18.2039C27.8408 18.0245 27.8526 17.8391 27.8664 17.6438C27.8763 17.4979 27.8861 17.346 27.9039 17.1941C28.038 16.1153 28.4758 15.3856 29.247 14.9635C29.6651 14.7347 30.1582 14.6262 30.6671 14.6262C31.7558 14.6262 32.9135 15.1173 33.5584 15.9654C34.4893 17.1902 34.3256 18.8568 33.16 20.0184C32.7399 20.4366 32.2981 20.8468 31.8721 21.2413C31.4303 21.6515 30.9728 22.0755 30.5408 22.5075C28.6534 24.4028 27.6968 26.667 27.7007 29.2369C27.7007 30.5209 28.4837 31.4182 29.6434 31.4695C30.2489 31.4971 30.8031 31.3039 31.1996 30.9252C31.5822 30.5603 31.7873 30.0613 31.7913 29.4834C31.8051 27.6946 32.5545 26.1858 34.1521 24.7401C34.941 24.0261 35.7082 23.322 36.4261 22.5647C37.6904 21.2294 38.3294 19.697 38.2781 18.131V18.1251L38.2761 18.1211Z" fill="#6B6C6F"/>
<path d="M29.8051 35.7632C29.7834 35.7632 29.7617 35.7632 29.74 35.7632C29.1424 35.7632 28.596 35.9722 28.1957 36.3529C27.8111 36.7217 27.5922 37.2286 27.5823 37.7789C27.5705 38.3528 27.7677 38.8774 28.1345 39.2581C28.5191 39.6565 29.0733 39.8813 29.6946 39.8892C30.9746 39.9089 31.8976 39.0865 31.9213 37.8913C31.945 36.6902 31.0555 35.7947 29.8051 35.7632Z" fill="#6B6C6F"/>
</g>
<defs>
<clipPath id="clip0_84_58">
<rect width="75" height="69.6374" fill="white"/>
</clipPath>
</defs>
</svg>
