<svg width="140" height="28" viewBox="0 0 140 28" fill="none" xmlns="http://www.w3.org/2000/svg">
<g opacity="0.5">
<path d="M47.55 2.975C48.5167 2.975 49.4083 3.175 50.225 3.575C51.0583 3.95833 51.7833 4.5 52.4 5.2C52.9833 5.9 53.45 6.71667 53.8 7.65C54.15 8.58333 54.325 9.6 54.325 10.7C54.325 11.8 54.15 12.8167 53.8 13.75C53.45 14.6833 52.9833 15.5083 52.4 16.225C51.7833 16.925 51.0583 17.4667 50.225 17.85C49.4083 18.2333 48.5167 18.425 47.55 18.425C46.55 18.425 45.6417 18.2333 44.825 17.85C44.025 17.4667 43.3167 16.925 42.7 16.225C42.1 15.5083 41.625 14.6833 41.275 13.75C40.9417 12.8167 40.775 11.8 40.775 10.7C40.775 9.6 40.9417 8.58333 41.275 7.65C41.625 6.71667 42.1 5.9 42.7 5.2C43.3167 4.5 44.025 3.95833 44.825 3.575C45.6417 3.175 46.55 2.975 47.55 2.975ZM47.55 5.975C46.55 5.975 45.725 6.425 45.075 7.325C44.4583 8.19167 44.15 9.31667 44.15 10.7C44.15 12.0833 44.4583 13.2083 45.075 14.075C45.725 14.975 46.55 15.425 47.55 15.425C48.5333 15.425 49.35 14.975 50 14.075C50.65 13.2083 50.975 12.0833 50.975 10.7C50.975 9.35 50.65 8.225 50 7.325C49.35 6.425 48.5333 5.975 47.55 5.975ZM64.45 12.725H60.925V25.15H57.575V3.475H60.925V9.725H64.45V12.725ZM79.175 17.025V20.85H88.25V23.85H66.75V20.85H75.825V17.025H70.525C69.7083 17.025 69.0667 16.7667 68.6 16.25C68.1333 15.7333 67.9 15.1 67.9 14.35V8.725H83.75V6.475H67.9V3.475H85.325C85.875 3.475 86.3083 3.64167 86.625 3.975C86.9417 4.29167 87.1 4.71667 87.1 5.25V11.725H71.25V14.025H87.225V17.025H79.175ZM111.8 25.15H108.45V3.5H111.8V25.15ZM92.45 16.325V3.475H95.8V16.15H105.55V19.15H94.85C94.5167 19.15 94.2 19.0833 93.9 18.95C93.6167 18.8 93.3667 18.6 93.15 18.35C92.9333 18.0833 92.7583 17.7833 92.625 17.45C92.5083 17.1 92.45 16.725 92.45 16.325ZM136.8 25.15H133.45V3.475H136.8V25.15ZM117 6.275C117 5.89167 117.058 5.53333 117.175 5.2C117.308 4.85 117.483 4.55 117.7 4.3C117.917 4.05 118.167 3.85 118.45 3.7C118.75 3.55 119.067 3.475 119.4 3.475H130.175V6.475H120.35V10.4H129.925V13.4H120.35V17.775H131.25V20.775H119.4C119.067 20.775 118.75 20.7 118.45 20.55C118.167 20.4 117.917 20.2 117.7 19.95C117.483 19.7 117.308 19.4083 117.175 19.075C117.058 18.725 117 18.3583 117 17.975V6.275Z" fill="white"/>
<g clip-path="url(#clip0_113_402)">
<path d="M14.0598 0.00195312C6.29388 0.00195312 0 6.26898 0 14.0018C0 21.7346 6.29388 28.0002 14.0598 28.0002C16.6727 28.0002 19.1189 27.2912 21.2142 26.0535V28.0002H28.1182V14.0018C28.1182 6.26898 21.8243 0.00195312 14.0598 0.00195312ZM21.2142 14.0283C21.1993 17.9447 17.9963 21.126 14.0598 21.126C10.1234 21.126 6.90369 17.9302 6.90369 14.0021C6.90369 10.074 10.1132 6.87648 14.0598 6.87648C18.0065 6.87648 21.2142 10.0723 21.2142 14.0021V14.0283Z" fill="white"/>
</g>
</g>
<defs>
<clipPath id="clip0_113_402">
<rect width="62" height="28" fill="white"/>
</clipPath>
</defs>
</svg>
