<svg width="134" height="29" viewBox="0 0 134 29" fill="none" xmlns="http://www.w3.org/2000/svg">
<path d="M41.55 4.975C42.5167 4.975 43.4083 5.175 44.225 5.575C45.0583 5.95833 45.7833 6.5 46.4 7.2C46.9833 7.9 47.45 8.71667 47.8 9.65C48.15 10.5833 48.325 11.6 48.325 12.7C48.325 13.8 48.15 14.8167 47.8 15.75C47.45 16.6833 46.9833 17.5083 46.4 18.225C45.7833 18.925 45.0583 19.4667 44.225 19.85C43.4083 20.2333 42.5167 20.425 41.55 20.425C40.55 20.425 39.6417 20.2333 38.825 19.85C38.025 19.4667 37.3167 18.925 36.7 18.225C36.1 17.5083 35.625 16.6833 35.275 15.75C34.9417 14.8167 34.775 13.8 34.775 12.7C34.775 11.6 34.9417 10.5833 35.275 9.65C35.625 8.71667 36.1 7.9 36.7 7.2C37.3167 6.5 38.025 5.95833 38.825 5.575C39.6417 5.175 40.55 4.975 41.55 4.975ZM41.55 7.975C40.55 7.975 39.725 8.425 39.075 9.325C38.4583 10.1917 38.15 11.3167 38.15 12.7C38.15 14.0833 38.4583 15.2083 39.075 16.075C39.725 16.975 40.55 17.425 41.55 17.425C42.5333 17.425 43.35 16.975 44 16.075C44.65 15.2083 44.975 14.0833 44.975 12.7C44.975 11.35 44.65 10.225 44 9.325C43.35 8.425 42.5333 7.975 41.55 7.975ZM58.45 14.725H54.925V27.15H51.575V5.475H54.925V11.725H58.45V14.725ZM73.175 19.025V22.85H82.25V25.85H60.75V22.85H69.825V19.025H64.525C63.7083 19.025 63.0667 18.7667 62.6 18.25C62.1333 17.7333 61.9 17.1 61.9 16.35V10.725H77.75V8.475H61.9V5.475H79.325C79.875 5.475 80.3083 5.64167 80.625 5.975C80.9417 6.29167 81.1 6.71667 81.1 7.25V13.725H65.25V16.025H81.225V19.025H73.175ZM105.8 27.15H102.45V5.5H105.8V27.15ZM86.45 18.325V5.475H89.8V18.15H99.55V21.15H88.85C88.5167 21.15 88.2 21.0833 87.9 20.95C87.6167 20.8 87.3667 20.6 87.15 20.35C86.9333 20.0833 86.7583 19.7833 86.625 19.45C86.5083 19.1 86.45 18.725 86.45 18.325ZM130.8 27.15H127.45V5.475H130.8V27.15ZM111 8.275C111 7.89167 111.058 7.53333 111.175 7.2C111.308 6.85 111.483 6.55 111.7 6.3C111.917 6.05 112.167 5.85 112.45 5.7C112.75 5.55 113.067 5.475 113.4 5.475H124.175V8.475H114.35V12.4H123.925V15.4H114.35V19.775H125.25V22.775H113.4C113.067 22.775 112.75 22.7 112.45 22.55C112.167 22.4 111.917 22.2 111.7 21.95C111.483 21.7 111.308 21.4083 111.175 21.075C111.058 20.725 111 20.3583 111 19.975V8.275Z" fill="#1E1E1E"/>
<g clip-path="url(#clip0_359_5912)">
<path d="M14.0598 0.00195312C6.29388 0.00195312 0 6.26898 0 14.0018C0 21.7346 6.29388 28.0002 14.0598 28.0002C16.6727 28.0002 19.1189 27.2912 21.2142 26.0535V28.0002H28.1182V14.0018C28.1182 6.26898 21.8243 0.00195312 14.0598 0.00195312ZM21.2142 14.0283C21.1993 17.9447 17.9963 21.126 14.0598 21.126C10.1234 21.126 6.90369 17.9302 6.90369 14.0021C6.90369 10.074 10.1132 6.87648 14.0598 6.87648C18.0065 6.87648 21.2142 10.0723 21.2142 14.0021V14.0283Z" fill="#EF2D44"/>
</g>
<defs>
<clipPath id="clip0_359_5912">
<rect width="62" height="28" fill="white"/>
</clipPath>
</defs>
</svg>
