<svg width="52" height="52" viewBox="0 0 52 52" fill="none" xmlns="http://www.w3.org/2000/svg">
<rect x="0.5" y="0.5" width="51" height="51" rx="25.5" fill="#EF2D44" stroke="#DDDDDD"/>
<path d="M40.9997 28.7282C40.9238 29.0058 40.8635 29.288 40.7704 29.5594C40.2334 31.1273 38.7855 32.2066 37.1168 32.2787C36.6683 32.2981 36.219 32.2903 35.7697 32.2857C35.1561 32.2803 34.7945 31.9158 34.7937 31.3017C34.7914 28.8352 34.7937 26.3687 34.7921 23.903C34.7921 22.85 34.8297 21.7955 34.6082 20.7534C33.8341 17.1183 30.755 14.337 27.0278 13.9191C22.6314 13.4252 18.6067 16.1367 17.5031 20.3819C17.3083 21.131 17.2308 21.9273 17.2214 22.7035C17.1885 25.5274 17.2088 28.3514 17.2081 31.1761C17.2081 31.9065 16.9881 32.2167 16.2696 32.2903C14.5539 32.4664 12.9956 32.1453 11.8583 30.7155C11.2901 30.0006 11.0115 29.1772 11.0044 28.2684C10.9981 27.4364 10.9989 26.6052 11.0044 25.7732C11.0169 23.5525 12.7725 21.78 15.0189 21.7179C15.1245 21.7148 15.231 21.7179 15.3531 21.7179C15.7014 18.4528 17.1752 15.8366 19.8583 13.9338C21.8722 12.504 24.1459 11.8891 26.6177 12.0163C32.1044 12.2993 36.3716 16.7586 36.651 21.6869C36.9845 21.7203 37.3249 21.7288 37.6552 21.7924C39.3928 22.1273 40.6592 23.4238 40.9465 25.1413C40.9559 25.1971 40.9809 25.2498 40.9989 25.3041V28.7282H40.9997Z" fill="white"/>
<path d="M26.012 39.9979C25.6214 39.9979 25.2316 40.0049 24.841 39.9971C23.7922 39.9762 22.9821 39.1744 22.9727 38.1548C22.9633 37.16 23.764 36.3202 24.7917 36.2884C25.601 36.2636 26.4119 36.2628 27.2204 36.2884C28.2458 36.3218 29.0465 37.17 29.03 38.1625C29.0136 39.1729 28.2121 39.9715 27.1821 39.9956C26.7923 40.0049 26.4017 39.9971 26.0112 39.9971L26.012 39.9979Z" fill="white"/>
<path d="M21.934 37.6056V38.6237C18.4408 39.0408 15.3961 36.4479 14.9805 33.3828H16.0191C16.3197 34.718 17.0131 35.8168 18.1402 36.6278C19.272 37.442 20.558 37.7071 21.934 37.6063V37.6056Z" fill="white"/>
<rect x="22" y="22" width="2" height="2" rx="1" fill="white"/>
<rect x="28" y="22" width="2" height="2" rx="1" fill="white"/>
<path d="M25.9494 31C22.3987 31 22 28 22 27H30C30 28 29.5 31 25.9494 31Z" fill="white"/>
</svg>
