<svg width="19" height="16" viewBox="0 0 19 16" fill="none" xmlns="http://www.w3.org/2000/svg">
<g clip-path="url(#clip0_330_5844)">
<path d="M9.50027 15.9986C7.72535 15.9986 5.95043 15.9986 4.17551 15.9986C3.23741 15.9986 2.66016 15.5193 2.49357 14.6349C2.09066 12.4938 1.68 10.3549 1.26712 8.21538C1.20458 7.89211 1.18687 7.57728 1.3114 7.26403C1.65066 6.41024 2.69724 6.049 3.53793 6.50991C4.17164 6.85744 4.79372 7.225 5.42133 7.58255C5.6726 7.72546 5.75119 7.70595 5.8973 7.46231C6.63007 6.24148 7.36561 5.02171 8.09339 3.79824C8.40388 3.27616 8.84886 2.96554 9.49086 2.96291C10.1417 2.96027 10.5928 3.27141 10.9077 3.80088C11.6316 5.01907 12.3644 6.23252 13.0938 7.44755C13.2532 7.71334 13.3207 7.72968 13.5986 7.57148C14.2085 7.22395 14.8151 6.87115 15.4277 6.52837C15.9923 6.21248 16.5645 6.21459 17.1052 6.56634C17.6526 6.9223 17.8729 7.43278 17.755 8.05717C17.3305 10.3011 16.9049 12.545 16.4688 14.7868C16.3243 15.5298 15.7078 15.9971 14.9086 15.9981C13.106 16.0007 11.3034 15.9992 9.50082 15.9992L9.50027 15.9986Z" fill="white"/>
<path d="M0 5.25979C0 4.67601 0.492019 4.20455 1.10026 4.20508C1.70629 4.20561 2.2044 4.68128 2.20495 5.25979C2.20495 5.83725 1.70685 6.31398 1.10082 6.31503C0.494232 6.31556 0 5.84252 0 5.25979Z" fill="white"/>
<path d="M9.49312 7.15464e-06C10.1063 -0.00210227 10.6017 0.462499 10.605 1.04365C10.6083 1.61899 10.108 2.09836 9.50253 2.10047C8.89595 2.10258 8.39452 1.63007 8.39065 1.05261C8.38677 0.473573 8.88101 0.00211658 9.49312 7.15464e-06Z" fill="white"/>
<path d="M19.0018 5.26775C18.9985 5.84996 18.4982 6.32247 17.8927 6.31456C17.285 6.30717 16.793 5.82992 16.7969 5.25141C16.8008 4.67501 17.3066 4.19933 17.9099 4.20513C18.5209 4.21093 19.0052 4.68239 19.0018 5.26775Z" fill="white"/>
</g>
<defs>
<clipPath id="clip0_330_5844">
<rect width="19" height="16" fill="white"/>
</clipPath>
</defs>
</svg>
