<svg width="54" height="55" viewBox="0 0 54 55" fill="none" xmlns="http://www.w3.org/2000/svg">
<path d="M49.0555 23.135H4.46094M24.5285 32.0539H13.3799M4.46094 19.1215L4.46094 36.0674C4.46094 38.5649 4.46094 39.8137 4.94699 40.7676C5.37453 41.6067 6.05674 42.2889 6.89584 42.7165C7.84978 43.2025 9.09854 43.2025 11.5961 43.2025L41.9204 43.2025C44.4179 43.2025 45.6667 43.2025 46.6206 42.7165C47.4597 42.2889 48.1419 41.6067 48.5695 40.7676C49.0555 39.8137 49.0555 38.5649 49.0555 36.0674V19.1215C49.0555 16.6239 49.0555 15.3752 48.5695 14.4212C48.1419 13.5821 47.4597 12.8999 46.6206 12.4724C45.6667 11.9863 44.4179 11.9863 41.9204 11.9863L11.5961 11.9863C9.09854 11.9863 7.84978 11.9863 6.89585 12.4724C6.05674 12.8999 5.37453 13.5821 4.94699 14.4212C4.46094 15.3752 4.46094 16.6239 4.46094 19.1215Z" stroke="#EF2D44" stroke-width="2.5" stroke-linecap="round" stroke-linejoin="round"/>
</svg>
