<svg width="54" height="55" viewBox="0 0 54 55" fill="none" xmlns="http://www.w3.org/2000/svg">
<path d="M30.1686 19.4603C28.8922 20.3702 27.3303 20.9055 25.6434 20.9055C21.3333 20.9055 17.8393 17.4115 17.8393 13.1014C17.8393 8.79136 21.3333 5.29736 25.6434 5.29736C28.4372 5.29736 30.8881 6.76546 32.2668 8.97227M13.3799 45.6268H19.2001C19.959 45.6268 20.7132 45.7171 21.4488 45.8977L27.5986 47.3922C28.933 47.7172 30.3231 47.7488 31.6714 47.487L38.471 46.1641C40.2671 45.8142 41.9195 44.9541 43.2144 43.6944L48.0252 39.0147C49.399 37.6805 49.399 35.5156 48.0252 34.1792C46.7882 32.976 44.8296 32.8405 43.4302 33.8609L37.8235 37.9514C37.0205 38.5384 36.0435 38.8544 35.0387 38.8544H29.6246L33.0707 38.8543C35.0132 38.8543 36.5866 37.3237 36.5866 35.4342V34.7502C36.5866 33.1812 35.4889 31.8132 33.9248 31.434L28.6058 30.1404C27.7402 29.9305 26.8537 29.8244 25.9625 29.8244C23.8113 29.8244 19.9172 31.6055 19.9172 31.6055L13.3799 34.3393M44.5961 15.3311C44.5961 19.6412 41.1021 23.1352 36.792 23.1352C32.482 23.1352 28.988 19.6412 28.988 15.3311C28.988 11.0211 32.482 7.52709 36.792 7.52709C41.1021 7.52709 44.5961 11.0211 44.5961 15.3311ZM4.46094 33.392L4.46094 46.3244C4.46094 47.5732 4.46094 48.1975 4.70396 48.6745C4.91774 49.0941 5.25884 49.4352 5.67839 49.6489C6.15536 49.892 6.77974 49.892 8.0285 49.892H9.81229C11.0611 49.892 11.6854 49.892 12.1624 49.6489C12.582 49.4352 12.9231 49.0941 13.1368 48.6745C13.3799 48.1975 13.3799 47.5732 13.3799 46.3244V33.392C13.3799 32.1432 13.3799 31.5188 13.1368 31.0418C12.9231 30.6223 12.582 30.2812 12.1624 30.0674C11.6854 29.8244 11.0611 29.8244 9.81229 29.8244L8.02851 29.8244C6.77974 29.8244 6.15536 29.8244 5.67839 30.0674C5.25884 30.2812 4.91774 30.6223 4.70396 31.0418C4.46094 31.5188 4.46094 32.1432 4.46094 33.392Z" stroke="black" stroke-width="2.5" stroke-linecap="round" stroke-linejoin="round"/>
</svg>
