<svg width="20" height="20" viewBox="0 0 20 20" fill="none" xmlns="http://www.w3.org/2000/svg">
<g clip-path="url(#clip0_330_6492)">
<path d="M2.11581 14.7871C2.0355 13.904 1.75227 13.1034 1.19656 12.4003C0.892538 12.0154 0.60142 11.6191 0.351891 11.194C-0.115619 10.3977 -0.11777 9.60644 0.348305 8.80942C0.547642 8.46897 0.764188 8.13855 1.01874 7.8411C1.73291 7.00681 2.05988 6.02703 2.16887 4.95406C2.20329 4.61719 2.28216 4.28677 2.36605 3.95779C2.5869 3.09411 3.14046 2.57734 3.9923 2.35587C4.41679 2.24549 4.84773 2.16951 5.28226 2.12508C6.30619 2.01971 7.17452 1.57963 7.95753 0.935999C8.22642 0.714526 8.51969 0.524589 8.82013 0.347553C9.58665 -0.103278 10.3553 -0.11833 11.134 0.318884C11.5642 0.560426 11.9643 0.84784 12.3451 1.15676C13.0801 1.75309 13.9283 2.0319 14.8512 2.14084C15.2764 2.19102 15.6973 2.26842 16.1103 2.38669C16.9098 2.61533 17.4067 3.13067 17.6282 3.93127C17.776 4.46668 17.8484 5.0157 17.9308 5.56114C18.0413 6.29365 18.3137 6.94732 18.7605 7.5372C19.0889 7.97083 19.4244 8.40088 19.6897 8.87966C20.1235 9.66091 20.0956 10.4278 19.6489 11.194C19.3735 11.6664 19.0394 12.0971 18.7103 12.5308C18.2012 13.2009 17.9653 13.9635 17.8842 14.7871C17.9531 14.967 17.8799 15.139 17.8555 15.3131C17.814 15.6049 17.7394 15.8887 17.6598 16.1732C17.4174 17.0405 16.8173 17.51 15.9769 17.72C15.5173 17.8347 15.0491 17.9063 14.5801 17.9687C13.7727 18.0755 13.0492 18.3722 12.4111 18.8818C12.2956 18.9736 12.1895 19.0961 12.0196 19.094C11.6173 19.3713 11.2265 19.6666 10.7662 19.8494C10.2148 20.068 9.67412 20.0436 9.13491 19.8086C8.71544 19.6258 8.35405 19.3506 7.98119 19.0933C7.86647 19.0897 7.77612 19.0259 7.69653 18.9571C6.86763 18.2418 5.86521 17.9959 4.81331 17.8691C4.28987 17.806 3.77576 17.6992 3.30681 17.4326C2.98773 17.2512 2.72386 17.0183 2.55679 16.6922C2.27141 16.136 2.16098 15.531 2.09071 14.9168C2.08569 14.8731 2.0943 14.8279 2.11724 14.7878L2.11581 14.7871Z" fill="#FFDB5C"/>
<path d="M16.9992 10.0064C16.9774 13.7773 14.0419 16.9757 10.011 16.9999C6.24047 17.0225 2.97519 14.0331 3.00014 9.88478C3.02275 6.17086 6.15471 2.90539 10.2059 3.0021C13.8517 3.08944 17.0062 6.1381 17 10.0057L16.9992 10.0064Z" fill="#FFCE1F"/>
<path d="M7.26729 13.9984C7.173 13.7847 7.28231 13.5963 7.31068 13.4111C7.41749 12.7043 7.54515 11.999 7.69368 11.2993C7.72956 11.1307 7.68033 11.0428 7.57018 10.9423C6.92685 10.355 6.28602 9.76531 5.64519 9.17562C5.60263 9.13604 5.56592 9.09014 5.5 9.01969C6.43705 8.89067 7.33905 8.76007 8.24356 8.6453C8.49305 8.61363 8.65325 8.52419 8.7634 8.29781C9.09466 7.61868 9.44762 6.94825 9.79473 6.27624C9.84396 6.18126 9.87317 6.07282 9.9733 6C10.0951 6.04749 10.1118 6.16622 10.1594 6.25725C10.5223 6.95538 10.8853 7.65351 11.2324 8.35876C11.32 8.53686 11.4577 8.61047 11.6363 8.63501C12.5642 8.76244 13.4929 8.88434 14.5 9.0189C14.1612 9.33393 13.88 9.63471 13.5563 9.88642C13.1199 10.226 12.7552 10.6305 12.3439 10.9914C12.2496 11.0737 12.2412 11.1552 12.2654 11.2795C12.4256 12.0972 12.5692 12.918 12.7177 13.738C12.7302 13.8061 12.7536 13.8884 12.6935 13.9343C12.6267 13.985 12.5558 13.9216 12.4949 13.8916C11.7406 13.518 10.9854 13.1451 10.2345 12.7652C10.0776 12.6861 9.95828 12.6599 9.77888 12.7533C8.95197 13.1808 8.11088 13.5844 7.26812 14L7.26729 13.9984Z" fill="white"/>
</g>
<defs>
<clipPath id="clip0_330_6492">
<rect width="20" height="20" fill="white"/>
</clipPath>
</defs>
</svg>
