<svg width="24" height="24" viewBox="0 0 24 24" fill="none" xmlns="http://www.w3.org/2000/svg">
<g clip-path="url(#clip0_329_9427)">
<path d="M18.9957 10.5429C18.9957 12.7795 18.9908 15.0161 18.9996 17.2517C19.0016 17.7511 18.9898 18.2427 18.8269 18.7219C18.3734 20.052 17.1368 20.9739 15.7048 20.9845C13.2285 21.0017 10.7512 21.0075 8.27488 20.9825C6.53567 20.9653 5.11251 19.5939 5.00945 17.8951C4.99473 17.6473 5.0016 17.3986 5.0016 17.1509C5.0016 12.6508 5.0016 8.14974 5.0016 3.64966C5.0016 2.87084 5.39812 2.28889 6.09008 2.07858C6.26773 2.0248 6.46402 2.00367 6.65149 2.00367C10.2143 1.99983 13.7781 1.99983 17.3409 2.00175C18.3391 2.00175 18.9937 2.64709 18.9947 3.62758C18.9977 5.93331 18.9947 8.23809 18.9947 10.5438L18.9957 10.5429ZM6.35606 15.0103C7.31007 14.4207 7.88228 14.3602 8.84414 14.363C11.0319 14.3707 13.2187 14.3707 15.4064 14.363C16.1906 14.3602 16.9149 14.5292 17.5637 14.9719C17.5784 14.9824 17.602 14.9805 17.6413 14.9872V14.7558C17.6413 11.0835 17.6413 7.41125 17.6413 3.73994C17.6413 3.3462 17.6216 3.327 17.2261 3.327C13.7408 3.327 10.2545 3.327 6.76927 3.327C6.37962 3.327 6.35704 3.34908 6.35704 3.72169C6.35704 7.40069 6.35704 11.0797 6.35704 14.7587V15.0113L6.35606 15.0103ZM12.0016 19.6669C13.201 19.6669 14.4013 19.6669 15.6007 19.6669C15.6429 19.6669 15.6851 19.664 15.7273 19.6621C16.9375 19.6102 17.8434 18.4799 17.6079 17.3179C17.4106 16.3442 16.6009 15.695 15.5517 15.6921C13.1804 15.6864 10.8091 15.6902 8.43879 15.6921C8.33377 15.6921 8.22776 15.7036 8.12275 15.7161C6.96851 15.8506 6.15682 16.9549 6.39336 18.066C6.59751 19.0254 7.39252 19.6592 8.42406 19.665C9.61658 19.6727 10.8091 19.6669 12.0016 19.6669Z" fill="#999999"/>
<path d="M10.1993 7.01959C10.6194 6.60857 11.0326 6.20332 11.4468 5.79902C11.8149 5.43986 12.1819 5.43794 12.55 5.79806C12.9632 6.20332 13.3744 6.61049 13.8004 7.03112C14.1645 6.67484 14.5169 6.32912 14.8702 5.9834C14.9448 5.91042 15.0184 5.83551 15.095 5.76445C15.3629 5.51188 15.679 5.46291 15.9607 5.62904C16.2335 5.78942 16.3435 6.08232 16.2492 6.42227C16.0127 7.27984 15.7732 8.13741 15.5337 8.99402C15.3335 9.71138 15.1343 10.4297 14.9311 11.1461C14.8143 11.5571 14.6062 11.7137 14.1675 11.7137C12.7217 11.7156 11.276 11.7156 9.83027 11.7137C9.39253 11.7137 9.18151 11.5581 9.06667 11.1471C8.62598 9.57309 8.18628 7.99816 7.74853 6.42227C7.65333 6.08136 7.76325 5.78942 8.03611 5.62808C8.3178 5.46099 8.63678 5.50708 8.90178 5.76253C9.28849 6.13513 9.67029 6.51254 10.055 6.88803C10.0992 6.93124 10.1463 6.97158 10.1993 7.01863V7.01959ZM14.2696 8.48408C13.7572 8.70688 13.5756 8.67327 13.1958 8.30162C12.9063 8.01833 12.6148 7.73791 12.3292 7.45078C12.2232 7.34418 12.1338 7.22126 12.0278 7.0945C11.6019 7.51416 11.2191 7.8714 10.8608 8.25169C10.5419 8.58972 10.2032 8.76162 9.72133 8.462C9.89113 9.07084 10.055 9.63263 10.2013 10.1992C10.2405 10.35 10.3053 10.3922 10.4594 10.3913C11.3624 10.3846 12.2654 10.3884 13.1683 10.3884C13.5511 10.3884 13.7929 10.2095 13.8937 9.85159C14.0193 9.40119 14.142 8.9508 14.2705 8.48408H14.2696Z" fill="#999999"/>
<path d="M14.711 17.6732C14.7149 17.1892 15.1222 16.7974 15.6169 16.7993C16.1096 16.8012 16.5179 17.1998 16.5189 17.6809C16.5199 18.1678 16.0949 18.5788 15.5992 18.5682C15.1045 18.5577 14.707 18.1572 14.711 17.6742V17.6732Z" fill="#999999"/>
</g>
<defs>
<clipPath id="clip0_329_9427">
<rect width="14" height="19" fill="white" transform="translate(5 2)"/>
</clipPath>
</defs>
</svg>
