<svg width="18" height="18" viewBox="0 0 18 18" fill="none" xmlns="http://www.w3.org/2000/svg">
<rect opacity="0.3" x="1" y="1" width="16" height="16" rx="8" stroke="white" stroke-width="2"/>
<path d="M8.14453 10.3984V10.5039H9.51562V10.3984C9.52734 9.51953 9.80859 9.11523 10.4883 8.69922C11.25 8.24805 11.7246 7.62695 11.7305 6.67188C11.7246 5.27734 10.6406 4.39844 9.05859 4.39844C7.61133 4.39844 6.43945 5.20117 6.39844 6.77734H7.86328C7.9043 5.99219 8.4668 5.61719 9.04688 5.61719C9.68555 5.61719 10.2012 6.03906 10.1953 6.69531C10.2012 7.28125 9.81445 7.67383 9.31641 7.99609C8.57812 8.44727 8.15625 8.9043 8.14453 10.3984ZM7.95703 12.1797C7.95117 12.6836 8.36719 13.0938 8.87109 13.0938C9.35742 13.0938 9.77344 12.6836 9.77344 12.1797C9.77344 11.6875 9.35742 11.2832 8.87109 11.2773C8.36719 11.2832 7.95117 11.6875 7.95703 12.1797Z" fill="white"/>
</svg>
